<?xml version="1.0" encoding="utf-8"?>
<!-- Generator: Adobe Illustrator 23.0.3, SVG Export Plug-In . SVG Version: 6.00 Build 0)  -->
<svg version="1.1" id="Warstwa_1" xmlns="http://www.w3.org/2000/svg" xmlns:xlink="http://www.w3.org/1999/xlink" x="0px" y="0px"
	 viewBox="0 0 178 43.7" style="enable-background:new 0 0 178 43.7;" xml:space="preserve">
<style type="text/css">
	.st0{fill:#FFFFFF;}
</style>
<g>
	<g>
		<path class="st0" d="M36.2,29.1V17.9c0-1.3-0.9-2.2-2.4-2.2c-1.9,0-3,1.2-3,3.3v10.1h-4.4V17.9c0-1.3-0.9-2.2-2.4-2.2
			c-1.9,0-3,1.2-3,3.3v10.1h-4.4V12.3h4.5v2.1c1.4-1.7,2.7-2.4,4.6-2.4c2.1,0,3.8,0.9,4.6,2.5c1.3-1.7,2.8-2.5,4.9-2.5
			c3.4,0,5.4,1.9,5.4,5.2v11.9H36.2z"/>
	</g>
	<g>
		<path class="st0" d="M50.8,32.1c-0.7,2-1.2,2.7-2.5,3.2c-0.7,0.3-2.1,0.5-3.1,0.5c-0.5,0-0.9,0-1.6-0.1v-3.3
			c0.6,0.2,0.8,0.2,1.2,0.2c1.5,0,2.7-1.2,2.7-2.8v-0.1l0,0l-6.3-17.5h4.9l3.7,12.2l3.5-12.2h4.5L50.8,32.1z"/>
	</g>
	<g>
		<path class="st0" d="M78,29.1V17.9c0-1.3-0.9-2.2-2.4-2.2c-1.9,0-3,1.2-3,3.3v10.1h-4.4V17.9c0-1.3-0.9-2.2-2.4-2.2
			c-1.9,0-3,1.2-3,3.3v10.1h-4.4V12.3h4.3v2.1c1.4-1.7,2.7-2.4,4.6-2.4c2.1,0,3.8,0.9,4.6,2.5c1.3-1.7,2.8-2.5,4.9-2.5
			c3.4,0,5.4,1.9,5.4,5.2v11.9H78z"/>
	</g>
	<g>
		<path class="st0" d="M95.3,29.1v-2c-1.2,1.9-2.8,2.7-5,2.7c-3.6,0-5.6-2.1-5.6-5.8V12.3h4.4V23c0,2,0.9,3,2.8,3
			c2.1,0,3.5-1.3,3.5-3.3V12.3h4.4v16.8C99.8,29.1,95.3,29.1,95.3,29.1z"/>
	</g>
	<g>
		<path class="st0" d="M114.5,28.3c-1.2,1-3,1.5-5.4,1.5c-5.1,0-7.8-1.9-7.9-5.6h4.3c0.2,0.9,0.4,1.2,0.8,1.6
			c0.6,0.4,1.5,0.6,2.6,0.6c2,0,3.2-0.6,3.2-1.7c0-0.7-0.4-1-1.5-1.4l-5.2-1.6c-1.6-0.5-2.1-0.8-2.7-1.4c-0.6-0.7-0.9-1.6-0.9-2.7
			c0-3.5,2.6-5.6,6.9-5.6c4.5,0,7.2,2.1,7.3,5.7h-4.2c0-1.5-1.1-2.3-3.1-2.3c-1.5,0-2.5,0.6-2.5,1.6c0,0.7,0.3,0.9,1.5,1.3l5.5,1.6
			c2.2,0.7,3.3,2.1,3.3,4.2C116.5,25.7,115.7,27.3,114.5,28.3z"/>
	</g>
	<g>
		<rect x="118.1" y="6" class="st0" width="4.4" height="4.4"/>
	</g>
	<g>
		<rect x="118.1" y="12.3" class="st0" width="4.4" height="16.8"/>
	</g>
	<g>
		<path class="st0" d="M132.1,29.8c-5,0-7.9-3.2-7.9-8.8c0-5.7,2.9-9,7.9-9c4.2,0,6.9,2.5,7.3,6.6h-4.2c-0.5-2.2-1.3-3-3.1-3
			c-1.2,0-2.2,0.5-2.7,1.4c-0.5,1-0.8,2.5-0.8,4.1c0,3.3,1.3,5.3,3.5,5.3c1.7,0,2.6-0.8,3.1-3h4.2C139,27.2,136.2,29.8,132.1,29.8z"
			/>
	</g>
	<g>
		<path class="st0" d="M145.6,20.8c-0.5,0-0.9,0.4-0.9,1c0,0.5,0.4,1,0.9,1s1-0.4,1-1C146.6,21.3,146.2,20.8,145.6,20.8z"/>
	</g>
	<g>
		<path class="st0" d="M145.6,6L145.6,6v10l0,0c3.2,0,5.8,2.6,5.8,5.8c0,3.2-2.6,5.8-5.8,5.8l0,0v10l0,0c8.7,0,15.8-7.1,15.8-15.8
			S154.4,6,145.6,6z"/>
	</g>
</g>
</svg>
